<?xml version="1.0" standalone="no"?>
<!DOCTYPE svg PUBLIC "-//W3C//DTD SVG 20010904//EN"
 "http://www.w3.org/TR/2001/REC-SVG-20010904/DTD/svg10.dtd">
<svg version="1.0" xmlns="http://www.w3.org/2000/svg"
 width="397.000000pt" height="397.000000pt" viewBox="0 0 397.000000 397.000000"
 preserveAspectRatio="xMidYMid meet">
<metadata>
Created by potrace 1.14, written by Peter Selinger 2001-2017
</metadata>
<g transform="translate(0.000000,397.000000) scale(0.100000,-0.100000)"
fill="#000000" stroke="none">
<path d="M2289 3893 c-8 -1 -77 -4 -154 -6 -116 -4 -154 -9 -220 -30 -114 -38
-198 -90 -290 -182 -67 -66 -89 -97 -127 -175 -26 -53 -54 -130 -64 -174 -33
-156 -1 -371 72 -488 13 -21 24 -41 24 -44 0 -4 24 -35 53 -69 52 -62 141
-136 207 -172 31 -18 34 -23 35 -66 1 -27 -3 -47 -9 -47 -190 -1 -385 -11
-442 -23 -225 -50 -438 -186 -567 -364 -23 -31 -44 -50 -54 -49 -61 9 -173
-37 -227 -93 -72 -75 -108 -170 -108 -286 0 -133 54 -244 176 -363 40 -39 70
-78 77 -100 20 -63 85 -184 131 -247 134 -182 326 -308 553 -364 l70 -18 3
-58 c3 -50 0 -61 -21 -84 -79 -85 -71 -209 19 -277 l37 -29 245 -2 c139 -2
251 1 261 7 10 5 130 11 267 12 278 4 289 6 340 74 21 27 29 50 32 94 5 70
-19 122 -75 160 -32 22 -50 26 -155 30 -65 3 -118 8 -118 13 0 4 0 17 0 30 0
21 5 22 74 25 91 3 238 39 329 80 293 133 503 412 551 730 61 407 -151 817
-515 997 l-74 37 -1 63 0 64 58 25 c112 49 247 160 302 248 11 18 23 35 26 38
4 3 13 19 20 36 14 31 15 32 100 36 182 9 294 116 294 283 0 161 -114 274
-284 280 -74 2 -75 3 -94 36 -144 262 -343 391 -627 407 -64 4 -122 6 -130 5z
m-410 -3381 c4 -7 6 -26 3 -42 -4 -27 -8 -30 -43 -30 -37 0 -38 0 -36 38 1 20
5 40 10 43 14 10 58 4 66 -9z"/>
</g>
</svg>
